<mxfile host="app.diagrams.net" modified="2023-08-25T14:27:39.888Z" agent="Mozilla/5.0 (X11; Linux x86_64; rv:109.0) Gecko/20100101 Firefox/111.0" etag="6wXQcSJoCEj_trEmhdaJ" version="21.6.9" type="github">
  <diagram name="PÃ¡gina-1" id="YLlwLidL2Koqm6W6LtaS">
    <mxGraphModel dx="1434" dy="678" grid="1" gridSize="10" guides="1" tooltips="1" connect="1" arrows="1" fold="1" page="1" pageScale="1" pageWidth="827" pageHeight="1169" math="0" shadow="0">
      <root>
        <mxCell id="0" />
        <mxCell id="1" parent="0" />
        <mxCell id="y-NhIsJSlm_vs5XBrfEp-5" value="ESCOLA" style="rounded=1;whiteSpace=wrap;html=1;" vertex="1" parent="1">
          <mxGeometry x="20" y="120" width="120" height="60" as="geometry" />
        </mxCell>
        <mxCell id="y-NhIsJSlm_vs5XBrfEp-8" value="" style="endArrow=none;html=1;rounded=0;" edge="1" parent="1">
          <mxGeometry width="50" height="50" relative="1" as="geometry">
            <mxPoint x="140" y="149.5" as="sourcePoint" />
            <mxPoint x="210" y="150" as="targetPoint" />
          </mxGeometry>
        </mxCell>
        <mxCell id="y-NhIsJSlm_vs5XBrfEp-30" value="" style="edgeStyle=orthogonalEdgeStyle;rounded=0;orthogonalLoop=1;jettySize=auto;html=1;" edge="1" parent="1" source="y-NhIsJSlm_vs5XBrfEp-9" target="y-NhIsJSlm_vs5XBrfEp-13">
          <mxGeometry relative="1" as="geometry" />
        </mxCell>
        <mxCell id="y-NhIsJSlm_vs5XBrfEp-9" value="TEM " style="rhombus;whiteSpace=wrap;html=1;" vertex="1" parent="1">
          <mxGeometry x="210" y="110" width="80" height="80" as="geometry" />
        </mxCell>
        <mxCell id="y-NhIsJSlm_vs5XBrfEp-12" value="" style="endArrow=none;html=1;rounded=0;" edge="1" parent="1" source="y-NhIsJSlm_vs5XBrfEp-13">
          <mxGeometry width="50" height="50" relative="1" as="geometry">
            <mxPoint x="390" y="150" as="sourcePoint" />
            <mxPoint x="480" y="150" as="targetPoint" />
          </mxGeometry>
        </mxCell>
        <mxCell id="y-NhIsJSlm_vs5XBrfEp-15" value="" style="edgeStyle=orthogonalEdgeStyle;rounded=0;orthogonalLoop=1;jettySize=auto;html=1;" edge="1" parent="1" source="y-NhIsJSlm_vs5XBrfEp-13">
          <mxGeometry relative="1" as="geometry">
            <mxPoint x="530" y="150" as="targetPoint" />
          </mxGeometry>
        </mxCell>
        <mxCell id="y-NhIsJSlm_vs5XBrfEp-19" value="" style="edgeStyle=orthogonalEdgeStyle;rounded=0;orthogonalLoop=1;jettySize=auto;html=1;" edge="1" parent="1">
          <mxGeometry relative="1" as="geometry">
            <mxPoint x="353" y="170" as="sourcePoint" />
            <mxPoint x="413" y="250" as="targetPoint" />
          </mxGeometry>
        </mxCell>
        <mxCell id="y-NhIsJSlm_vs5XBrfEp-22" value="" style="edgeStyle=orthogonalEdgeStyle;rounded=0;orthogonalLoop=1;jettySize=auto;html=1;" edge="1" parent="1" source="y-NhIsJSlm_vs5XBrfEp-20">
          <mxGeometry relative="1" as="geometry">
            <mxPoint x="414" y="400" as="targetPoint" />
            <Array as="points">
              <mxPoint x="414" y="460" />
            </Array>
          </mxGeometry>
        </mxCell>
        <mxCell id="y-NhIsJSlm_vs5XBrfEp-20" value="TEM" style="rhombus;whiteSpace=wrap;html=1;" vertex="1" parent="1">
          <mxGeometry x="374" y="250" width="80" height="80" as="geometry" />
        </mxCell>
        <mxCell id="y-NhIsJSlm_vs5XBrfEp-21" value="SALA" style="rounded=1;whiteSpace=wrap;html=1;" vertex="1" parent="1">
          <mxGeometry x="354" y="410" width="120" height="60" as="geometry" />
        </mxCell>
        <mxCell id="y-NhIsJSlm_vs5XBrfEp-27" value="" style="edgeStyle=orthogonalEdgeStyle;rounded=0;orthogonalLoop=1;jettySize=auto;html=1;" edge="1" parent="1" source="y-NhIsJSlm_vs5XBrfEp-23">
          <mxGeometry relative="1" as="geometry">
            <mxPoint x="670" y="150" as="targetPoint" />
          </mxGeometry>
        </mxCell>
        <mxCell id="y-NhIsJSlm_vs5XBrfEp-31" value="" style="edgeStyle=orthogonalEdgeStyle;rounded=0;orthogonalLoop=1;jettySize=auto;html=1;" edge="1" parent="1" target="y-NhIsJSlm_vs5XBrfEp-13">
          <mxGeometry relative="1" as="geometry">
            <mxPoint x="540" y="150" as="sourcePoint" />
          </mxGeometry>
        </mxCell>
        <mxCell id="y-NhIsJSlm_vs5XBrfEp-23" value="AULA" style="rhombus;whiteSpace=wrap;html=1;" vertex="1" parent="1">
          <mxGeometry x="530" y="110" width="80" height="80" as="geometry" />
        </mxCell>
        <mxCell id="y-NhIsJSlm_vs5XBrfEp-13" value="TURMA" style="rounded=1;whiteSpace=wrap;html=1;" vertex="1" parent="1">
          <mxGeometry x="350" y="120" width="120" height="60" as="geometry" />
        </mxCell>
        <mxCell id="y-NhIsJSlm_vs5XBrfEp-26" value="PROFESSORES" style="rounded=1;whiteSpace=wrap;html=1;" vertex="1" parent="1">
          <mxGeometry x="670" y="120" width="120" height="60" as="geometry" />
        </mxCell>
        <mxCell id="y-NhIsJSlm_vs5XBrfEp-32" value="1" style="text;html=1;strokeColor=none;fillColor=none;align=center;verticalAlign=middle;whiteSpace=wrap;rounded=0;" vertex="1" parent="1">
          <mxGeometry x="150" y="120" width="60" height="30" as="geometry" />
        </mxCell>
        <mxCell id="y-NhIsJSlm_vs5XBrfEp-33" value="n" style="text;html=1;strokeColor=none;fillColor=none;align=center;verticalAlign=middle;whiteSpace=wrap;rounded=0;" vertex="1" parent="1">
          <mxGeometry x="290" y="120" width="60" height="30" as="geometry" />
        </mxCell>
        <mxCell id="y-NhIsJSlm_vs5XBrfEp-35" value="n" style="text;html=1;strokeColor=none;fillColor=none;align=center;verticalAlign=middle;whiteSpace=wrap;rounded=0;" vertex="1" parent="1">
          <mxGeometry x="610" y="120" width="60" height="30" as="geometry" />
        </mxCell>
        <mxCell id="y-NhIsJSlm_vs5XBrfEp-36" value="n" style="text;html=1;strokeColor=none;fillColor=none;align=center;verticalAlign=middle;whiteSpace=wrap;rounded=0;" vertex="1" parent="1">
          <mxGeometry x="354" y="190" width="60" height="30" as="geometry" />
        </mxCell>
        <mxCell id="y-NhIsJSlm_vs5XBrfEp-37" value="1" style="text;html=1;strokeColor=none;fillColor=none;align=center;verticalAlign=middle;whiteSpace=wrap;rounded=0;" vertex="1" parent="1">
          <mxGeometry x="414" y="190" width="60" height="30" as="geometry" />
        </mxCell>
        <mxCell id="y-NhIsJSlm_vs5XBrfEp-38" value="1" style="text;html=1;strokeColor=none;fillColor=none;align=center;verticalAlign=middle;whiteSpace=wrap;rounded=0;" vertex="1" parent="1">
          <mxGeometry x="354" y="350" width="60" height="30" as="geometry" />
        </mxCell>
        <mxCell id="y-NhIsJSlm_vs5XBrfEp-39" value="1" style="text;html=1;strokeColor=none;fillColor=none;align=center;verticalAlign=middle;whiteSpace=wrap;rounded=0;" vertex="1" parent="1">
          <mxGeometry x="414" y="350" width="60" height="30" as="geometry" />
        </mxCell>
        <mxCell id="y-NhIsJSlm_vs5XBrfEp-40" value="1" style="text;html=1;strokeColor=none;fillColor=none;align=center;verticalAlign=middle;whiteSpace=wrap;rounded=0;" vertex="1" parent="1">
          <mxGeometry x="474" y="120" width="60" height="30" as="geometry" />
        </mxCell>
        <mxCell id="y-NhIsJSlm_vs5XBrfEp-41" value="n" style="text;html=1;strokeColor=none;fillColor=none;align=center;verticalAlign=middle;whiteSpace=wrap;rounded=0;" vertex="1" parent="1">
          <mxGeometry x="470" y="150" width="60" height="30" as="geometry" />
        </mxCell>
        <mxCell id="y-NhIsJSlm_vs5XBrfEp-42" value="1" style="text;html=1;strokeColor=none;fillColor=none;align=center;verticalAlign=middle;whiteSpace=wrap;rounded=0;" vertex="1" parent="1">
          <mxGeometry x="610" y="150" width="60" height="30" as="geometry" />
        </mxCell>
      </root>
    </mxGraphModel>
  </diagram>
</mxfile>
